<?xml version="1.0" encoding="UTF-8" standalone="no"?>
<!-- Created with Inkscape (http://www.inkscape.org/) -->

<svg
   width="70.716461mm"
   height="40.695343mm"
   viewBox="0 0 70.716461 40.695343"
   version="1.1"
   id="svg16183"
   xmlns="http://www.w3.org/2000/svg"
   xmlns:svg="http://www.w3.org/2000/svg">
  <defs
     id="defs16180" />
  <g
     id="layer1"
     transform="translate(-261.7584,-351.68441)">
    <path
       id="path18541"
       style="font-weight:800;font-size:23.6038px;font-family:Gilroy;-inkscape-font-specification:'Aerovias Brasil NF Bold';text-align:center;letter-spacing:-0.886354px;text-anchor:middle;fill:#ffffff;fill-opacity:1;stroke-width:1;stroke-miterlimit:15;stroke-dashoffset:4.15748;paint-order:markers stroke fill"
       d="m 281.09031,351.68449 c -2.37928,0 -4.59375,0.9412 -6.64255,2.82481 -2.01577,1.88357 -3.0234,3.99897 -3.0234,6.34519 0,0.52874 0.0496,1.07363 0.14862,1.63541 l 3.66799,19.77791 c 0.0328,0.16528 0.05,0.41293 0.05,0.74338 0,1.35487 -0.61133,2.59437 -1.83402,3.71792 -1.22266,1.15657 -2.51174,1.73416 -3.86659,1.73416 h -6.79013 l -1.04182,3.91651 h 7.83195 c 2.41232,0 4.6268,-0.95808 6.64256,-2.87471 2.01575,-1.88358 3.02338,-4.03164 3.02338,-6.44395 0,-0.52872 -0.0496,-1.00833 -0.14861,-1.4379 l -3.66802,-19.82676 c -0.0331,-0.19825 -0.05,-0.47972 -0.05,-0.84321 0,-1.32181 0.61133,-2.52757 1.834,-3.61809 1.25574,-1.12354 2.54478,-1.68532 3.86658,-1.68532 h 6.64258 3.51716 l -7.98063,29.79006 h 4.06519 l 2.87471,-10.65676 h 2.37878 c 1.05745,0 1.85112,-0.0169 2.37987,-0.05 l 3.668,17.64658 h 4.01418 l -3.68862,-17.59665 h 7.44342 c -0.23483,0.87396 -0.84535,3.404 -0.84535,6.1466 0,4.39504 1.22264,8.21161 3.66799,11.45005 h 5.35334 c -3.40366,-3.30454 -5.10591,-7.10528 -5.10591,-11.4012 0,-2.24789 0.78363,-5.36988 1.00057,-6.19545 h 11.74302 l -0.99513,3.61807 -1.88391,7.03869 h 4.06409 l 9.07125,-33.75541 c -2.77579,0 -5.61741,0.69353 -8.5254,2.08143 -2.87492,1.35486 -5.45304,3.13929 -7.73318,5.35332 -2.28012,2.181 -4.29537,4.62628 -6.04678,7.33602 -0.93672,1.45911 -1.72581,2.91322 -2.36792,4.36253 h -3.82754 c 0.67118,-0.61038 1.30365,-1.28708 1.89803,-2.03261 1.94969,-2.4784 2.92464,-5.15556 2.92464,-8.03052 0,-2.64362 -0.89167,-4.8075 -2.67612,-6.49279 -1.75141,-1.71838 -3.949,-2.57738 -6.59264,-2.57738 h -10.75442 z m 14.22382,3.96535 h 4.21388 c 1.55313,0 2.82529,0.46271 3.81666,1.38799 1.02442,0.92528 1.53666,2.1637 1.53666,3.71684 0,2.54449 -1.10671,4.85805 -3.32074,6.9399 -2.21404,2.08184 -4.60979,3.12322 -7.18732,3.12322 h -3.12324 z m 31.70869,1.13947 -3.74289,14.02848 h -11.21995 c 1.2251,-2.4385 2.84097,-4.71958 4.85088,-6.84115 2.97409,-3.13933 6.34478,-5.53506 10.11196,-7.18733 z" />
  </g>
</svg>
